<svg class="logo" xmlns="http://www.w3.org/2000/svg" width="173" height="45" viewBox="0 0 173 45"><path fill="#282828" fill-rule="evenodd" d="M4.8 32.982H0V2.789L4.8.044v13.329c1.354-1.489 3.71-2.54 6.416-2.54 6.503 0 10.824 4.378 10.824 11.206 0 6.829-4.32 11.206-10.824 11.206-2.88 0-5.019-1.182-6.415-2.54v2.277zm-.086-10.943c0 3.765 2.487 6.566 6.284 6.566 3.797 0 6.329-2.801 6.329-6.566 0-3.764-2.532-6.565-6.329-6.565-3.797 0-6.284 2.801-6.284 6.565zm21.424 10.943V11.097h4.8v21.885h-4.8zm-.83-27.62c0-1.838 1.441-3.282 3.23-3.282 1.79 0 3.23 1.444 3.23 3.283 0 1.838-1.44 3.282-3.23 3.282-1.789 0-3.23-1.444-3.23-3.282zM36.93 23.44V2.789L41.817 0v11.097h4.888v4.64h-4.888v7.703c0 2.67 2.226 4.902 4.888 4.902v4.903c-5.368 0-9.776-4.377-9.776-9.805zm14.645-12.343h4.8v2.276c1.397-1.357 3.536-2.54 6.416-2.54 6.503 0 10.824 4.378 10.824 11.206 0 6.829-4.32 11.206-10.824 11.206-2.705 0-5.062-1.05-6.415-2.54v11.481L51.574 45V11.097zm4.714 10.942c0 3.765 2.487 6.566 6.284 6.566 3.797 0 6.329-2.801 6.329-6.566 0-3.764-2.532-6.565-6.329-6.565-3.797 0-6.284 2.801-6.284 6.565zm37.189-10.942h4.888v21.885h-4.888v-2.276c-.917 1.182-3.317 2.539-6.241 2.539-6.241 0-10.955-4.64-10.955-11.206 0-6.565 4.714-11.205 10.955-11.205 2.88 0 5.324 1.357 6.24 2.539v-2.276zm.174 10.942c0-3.589-2.706-6.565-6.24-6.565-3.623 0-6.416 2.976-6.416 6.565 0 3.59 2.793 6.566 6.415 6.566 3.535 0 6.241-2.977 6.241-6.566zm9.794 10.943V11.097h4.8v2.495c1.005-1.314 2.969-2.758 5.98-2.758 5.412 0 8.38 3.195 8.38 9.017v13.131h-4.801v-12.08c0-3.853-1.615-5.516-4.757-5.516-3.143 0-4.801 2.276-4.801 5.515v12.081h-4.8zm44.134 0h-4.801v-2.276c-1.397 1.357-3.535 2.539-6.416 2.539-6.503 0-10.823-4.377-10.823-11.206 0-6.828 4.32-11.205 10.823-11.205 2.706 0 5.063 1.05 6.416 2.539V2.789l4.8-2.761v32.954zm-4.714-10.943c0-3.764-2.488-6.565-6.285-6.565s-6.328 2.801-6.328 6.565c0 3.765 2.531 6.566 6.328 6.566s6.285-2.801 6.285-6.566zm25.247-10.942H173v21.885h-4.888v-2.276c-.917 1.182-3.317 2.539-6.241 2.539-6.241 0-10.955-4.64-10.955-11.206 0-6.565 4.714-11.205 10.955-11.205 2.88 0 5.324 1.357 6.24 2.539v-2.276zm.174 10.942c0-3.589-2.705-6.565-6.24-6.565-3.623 0-6.416 2.976-6.416 6.565 0 3.59 2.793 6.566 6.415 6.566 3.536 0 6.241-2.977 6.241-6.566z"></path></svg>